PathFileType	4	(X/Y/Z)	Patient4_TMGait_0pt5_01_right_31.trc.trc
DataRate	CameraRate	NumFrames	NumMarkers	Units	OrigDataRate	OrigDataStartFrame	OrigNumFrames
75.675675675676	75.675675675676	4	33	mm	75.675675675676	71	       141
Frame#	Time	L.ASIS			Sacral			L.Shoulder			Chest			R.Shoulder			Neck			R.ASIS			R.Thigh.Superior			R.Thigh.Lateral			R.Thigh.Inferior			R.Patella			L.Thigh.Superior			L.Thigh.Lateral			L.Thigh.Inferior			L.Patella			L.Shank.Superior			L.Shank.Lateral			L.Shank.Inferior			R.Shank.Superior			R.Shank.Lateral			R.Shank.Inferior			R.Heel			R.Midfoot.Superior			R.Midfoot.Lateral			R.Toe			L.Heel			L.Midfoot.Lateral			L.Midfoot.Superior			L.Toe			L.Elbow			L.Wrist			R.Elbow			R.Wrist			
		X1	Y1	Z1	X2	Y2	Z2	X3	Y3	Z3	X4	Y4	Z4	X5	Y5	Z5	X6	Y6	Z6	X7	Y7	Z7	X8	Y8	Z8	X9	Y9	Z9	X10	Y10	Z10	X11	Y11	Z11	X12	Y12	Z12	X13	Y13	Z13	X14	Y14	Z14	X15	Y15	Z15	X16	Y16	Z16	X17	Y17	Z17	X18	Y18	Z18	X19	Y19	Z19	X20	Y20	Z20	X21	Y21	Z21	X22	Y22	Z22	X23	Y23	Z23	X24	Y24	Z24	X25	Y25	Z25	X26	Y26	Z26	X27	Y27	Z27	X28	Y28	Z28	X29	Y29	Z29	X30	Y30	Z30	X31	Y31	Z31	X32	Y32	Z32	X33	Y33	Z33	

71	41.675000000000	832.604811090982	961.118634401760	363.983911460462	649.020507482998	1007.165163779490	555.392669376370	793.966689548067	1437.301444920998	362.056163327162	923.658299013103	1359.388651959557	498.665734373548	875.074067782423	1429.625100415711	687.799445482917	825.460636623103	1493.405478448041	511.618297261041	886.851313539803	933.856760135865	633.241357874344	884.105768844728	723.048431974185	601.751133974668	787.294652079946	628.037285908233	670.420793826898	840.348609150704	564.409030571469	584.207622771965	822.296125062864	480.053270298212	588.551800355515	906.093293135627	771.101722974372	386.400185004968	841.491451063402	643.577436489951	321.368239134363	944.753970817405	580.060327240933	375.576586119849	968.933987134911	516.856592893880	374.177006387402	954.698505058587	445.981356855787	365.603619773746	891.521251412761	313.468739525119	319.321655369285	984.398494987127	219.035555906403	372.653432083766	785.710471710320	395.683102570578	596.129995744323	706.889915507960	298.755177353662	658.277618778014	734.713950146004	201.642445660729	591.918164814883	585.480426226163	43.740949823130	558.462682761478	756.195135208034	96.143159738378	598.495360511043	666.662500993310	35.993414204621	635.342670886217	875.062549572810	42.149257734262	629.783407396372	908.874973114088	37.768915125197	415.120563050859	980.417717066611	44.711632627957	332.980780400637	1048.001054892957	124.366569816933	351.207627015013	1181.783972435046	100.282581585811	322.594982831557	669.676193641334	1099.762356332248	269.740939643675	654.394190762997	841.221863650528	257.866850337850	984.977899718824	1101.155778229125	792.067925910728	1234.004444187524	1039.213988689700	766.941360614233	
72	41.688214285714	834.823624614721	959.674532820699	363.011129983980	650.289278717898	1005.812987851145	553.425602090792	793.743806666883	1436.017554407905	360.152065329642	923.400039879003	1358.871900034453	497.262849514158	873.855210978535	1428.926499310289	686.225457552613	824.541621879690	1492.468475436589	509.771950161638	887.946423433587	933.034112344819	632.495548382741	883.793319553286	721.745120918817	601.594803916965	785.493552289890	627.476470572532	669.772515062098	838.394865261990	563.258182100805	584.028787188313	819.424265488644	478.818476052375	588.031593382598	908.565615877500	769.518829194756	385.336663238934	842.309081280708	641.614828455756	321.518559190655	945.883005714354	578.316622583104	374.989036942862	969.132609123923	514.245780311382	374.379646105409	954.248526490480	442.932586067066	366.295417686384	888.881537509513	311.279126481089	320.475301374352	979.975360206867	215.457590463173	374.328991598179	782.029810638561	394.888590592293	595.655167805433	702.284552949962	298.783148395703	657.985229219392	729.161874683512	201.276793499944	591.712237954252	578.841803340927	43.838848197863	558.556687694771	749.593624738341	96.077991424955	598.522198532515	660.037748068082	35.954138161976	635.347445723026	868.429108507506	41.868778746612	629.835245712020	900.218868441520	37.164098542109	416.538154825694	972.177264555739	42.259683359172	334.555191048588	1042.376641152940	119.186162681703	353.659000795846	1175.487384766569	90.520480410299	325.235890998564	672.402868448742	1097.355557212612	267.295354146216	661.938384601392	838.505601955873	254.663692203338	980.774844089599	1098.792182711683	790.246301226383	1229.179582358530	1033.745680571567	765.737537876265	
73	41.701428571429	837.270557951219	958.267881728484	361.993673176183	651.644545169944	1004.472518483170	551.260069324965	793.673280107795	1434.686535831418	358.071655202175	923.224494573115	1358.382846227604	495.787067408266	872.581426216690	1428.278486595116	684.534795447118	823.662087051650	1491.540702249761	507.738853669224	889.099096315155	932.159085129372	631.684904126538	883.749946851083	720.443267612912	601.388531523863	783.968507236172	626.891410132605	668.977078817917	836.794693940414	562.099701886216	583.707187419378	816.925233518318	477.485007558886	587.356539860740	911.020546532299	767.786165151023	384.432460324524	843.389086424879	639.790816274582	321.428843697978	947.044744091339	576.609583118433	374.626124521195	969.270207150667	511.690325093322	374.743332802358	953.886149522939	440.015050716070	366.886664157678	886.565658540561	309.202247187570	321.325482037303	975.841193557676	212.051742295574	375.802405856306	778.652220861584	394.044479336608	595.058792855411	697.903594488272	298.856283240313	657.627670181694	723.739751316629	200.931607769658	591.460483717894	572.217870054666	44.073660995343	558.677785553343	743.028802192719	96.040380497171	598.545159653767	653.437088348695	35.977534457871	635.360095572876	861.821649497753	41.547943202636	629.886193089417	891.847445566896	36.706336600560	417.578364652456	964.291724250547	40.083739647761	335.833995372771	1037.048354306270	114.227297943858	355.997971369302	1169.449937189136	81.030668706270	327.901104845919	675.587817152634	1094.785864168673	264.677870607283	670.360020748903	835.687222727035	251.278022837352	976.071487094027	1096.388139768825	788.511187443653	1223.556893063728	1027.204629689843	764.638441285499	
74	41.714642857143	839.848231655429	956.992258953258	360.910125678984	653.042121078722	1003.207316398724	548.928418836014	793.778493159113	1433.368815521757	355.839905970816	923.149202145353	1357.948034219007	494.247995807033	871.311819488011	1427.728644672034	682.738556188880	822.872431427690	1490.672394630103	505.537660755342	890.267721681955	931.273644262851	630.781674801003	883.981272728616	719.202570342871	601.056253630901	782.809762498737	626.299218888643	667.996159662359	835.647305086498	560.967150565622	583.187787786668	814.932013623588	476.054797364044	586.507248712798	913.407817152458	766.044795345279	383.694157206356	844.763690262667	638.218103193808	321.087383083603	948.283857493639	575.080438768443	374.478659092037	969.415043863459	509.339540292231	375.217495276845	953.674124044836	437.373228257887	367.335153946183	884.678479119688	307.376545408067	321.826074961239	972.107008488798	208.991291234250	377.007378927794	775.676384673021	393.158185923978	594.320243111980	693.823424866205	299.012443472815	657.185748412910	718.502327527578	200.638837306176	591.158871744708	565.625172260659	44.531654297614	558.830868368436	736.534564038821	96.053751591181	598.570722593416	646.874009542332	36.114348978906	635.382076409547	855.249341696634	41.176231090268	629.938540862676	884.014605808795	36.443305411584	418.274147914103	956.948411413290	38.291287185202	336.797255650157	1032.085207737028	109.739709047125	358.092787690625	1163.757438920071	72.290924075638	330.376597022153	679.275729225322	1092.122907172760	261.903810598189	679.620785314557	832.863192037932	247.739592131707	970.910203217926	1094.021904851170	786.875636831410	1217.094140185732	1019.617161179553	763.644433787741	
